<svg width="113" height="57" xmlns="http://www.w3.org/2000/svg"><title>logo</title><path d="M62.781 51.75v4.094h-28.938v-4.094zm-41.094-9.063c0-1.396.318-2.453.953-3.172.635-.719 1.547-1.078 2.734-1.078 1.208 0 2.151.359 2.828 1.078.677.719 1.016 1.776 1.016 3.172 0 1.354-.344 2.396-1.031 3.125-.688.729-1.625 1.094-2.813 1.094-1.063 0-1.943-.328-2.641-.984-.698-.656-1.047-1.734-1.047-3.234zm45.719 0c0-1.396.318-2.453.953-3.172.635-.719 1.547-1.078 2.734-1.078 1.208 0 2.151.359 2.828 1.078.677.719 1.016 1.776 1.016 3.172 0 1.354-.344 2.396-1.031 3.125-.688.729-1.625 1.094-2.813 1.094-1.063 0-1.943-.328-2.641-.984-.698-.656-1.047-1.734-1.047-3.234zm-66.844-14.219c0-5.521.807-10.687 2.422-15.5 1.615-4.813 3.943-9.031 6.984-12.656h5.063c-3 4.021-5.255 8.437-6.766 13.25-1.51 4.813-2.266 9.76-2.266 14.844 0 5 .771 9.885 2.313 14.656 1.542 4.771 3.76 9.125 6.656 13.063h-5c-3.063-3.542-5.396-7.677-7-12.406-1.604-4.729-2.406-9.812-2.406-15.25zm112.125 0c0 5.479-.807 10.583-2.422 15.313-1.615 4.729-3.943 8.844-6.984 12.344h-5c2.896-3.917 5.115-8.266 6.656-13.047 1.542-4.781 2.313-9.672 2.313-14.672 0-5.083-.755-10.031-2.266-14.844-1.51-4.813-3.766-9.229-6.766-13.25h5.063c3.063 3.646 5.396 7.88 7 12.703 1.604 4.823 2.406 9.974 2.406 15.453zm0 0" fill="#333"/></svg>
